<svg width="64" height="64" viewBox="0 0 64 64" fill="none" xmlns="http://www.w3.org/2000/svg">
  <defs>
    <linearGradient id="qm-grad" x1="8" y1="8" x2="56" y2="56" gradientUnits="userSpaceOnUse">
      <stop stop-color="#4f46e5"/>
      <stop offset="1" stop-color="#d97706"/>
    </linearGradient>
  </defs>
  <!-- Rounded backdrop -->
  <rect x="6" y="6" width="52" height="52" rx="16" fill="url(#qm-grad)" fill-opacity="0.12"/>
  <!-- Quotation marks -->
  <path d="M20 24c-4 0-7 3.2-7 7.4 0 4 2.8 7 6.4 7 .6 0 1.1-.1 1.6-.2-.7 3-2.9 5.3-6 6.3l1.6 3.3c5.6-1.7 9.4-6.4 9.4-13V31c0-4-2.7-7-6-7z" fill="url(#qm-grad)"/>
  <path d="M40 24c-4 0-7 3.2-7 7.4 0 4 2.8 7 6.4 7 .6 0 1.1-.1 1.6-.2-.7 3-2.9 5.3-6 6.3l1.6 3.3c5.6-1.7 9.4-6.4 9.4-13V31c0-4-2.7-7-6-7z" fill="url(#qm-grad)"/>
  <!-- Sparkle -->
  <path d="M50 10 L51.5 6 L53 10 L57 11.5 L53 13 L51.5 17 L50 13 L46 11.5 Z" fill="#d97706"/>
</svg>
